<?xml version="1.0" standalone="no"?>
<!DOCTYPE svg PUBLIC "-//W3C//DTD SVG 20010904//EN"
 "http://www.w3.org/TR/2001/REC-SVG-20010904/DTD/svg10.dtd">
<svg version="1.0" xmlns="http://www.w3.org/2000/svg"
 width="128.000000pt" height="128.000000pt" viewBox="0 0 128.000000 128.000000"
 preserveAspectRatio="xMidYMid meet">

<g transform="translate(0.000000,128.000000) scale(0.100000,-0.100000)"
fill="#000000" stroke="none">
<path d="M625 1180 c-4 -6 -3 -16 3 -22 6 -6 12 -6 17 2 4 6 3 16 -3 22 -6 6
-12 6 -17 -2z"/>
<path d="M897 1146 c-20 -25 -37 -48 -37 -52 0 -6 -252 -326 -291 -369 -66
-72 -90 -107 -113 -164 -14 -36 -26 -68 -26 -72 0 -7 44 19 116 69 17 12 17
12 1 8 -11 -4 -16 -2 -12 5 4 6 14 8 22 5 8 -3 23 -1 35 5 16 8 22 7 34 -8 21
-28 16 -38 -8 -17 -17 14 -20 15 -9 2 14 -19 8 -35 -21 -56 -22 -16 -23 -32
-2 -32 8 0 20 14 25 30 6 17 14 30 19 30 4 0 24 -13 45 -30 43 -34 40 -33 66
-20 26 14 24 48 -3 78 l-23 24 28 -7 c18 -5 27 -3 27 5 0 6 12 -3 27 -21 15
-17 40 -40 55 -49 25 -15 27 -19 13 -30 -17 -14 -381 -29 -532 -22 -75 4 -81
6 -67 20 13 12 20 13 35 4 26 -17 62 -16 56 1 -3 8 -1 20 4 28 7 11 9 10 9 -6
1 -19 1 -19 11 -2 13 22 19 128 7 121 -4 -3 -8 20 -8 50 0 43 -3 56 -15 56
-10 0 -15 -10 -15 -30 l0 -30 -20 20 c-11 11 -29 20 -40 20 -11 0 -23 7 -26
15 -4 8 -10 12 -15 9 -5 -3 -9 -1 -9 4 0 20 79 52 126 52 71 -1 99 -19 99 -67
0 -56 32 -57 76 -2 19 23 51 61 72 85 43 48 44 84 2 84 -25 0 -74 -60 -115
-140 -12 -23 -24 -40 -26 -37 -6 6 40 99 67 139 l19 26 -34 21 c-41 26 -51 26
-76 1 -11 -11 -20 -16 -20 -12 0 15 36 42 55 42 10 0 33 -9 52 -21 26 -16 37
-18 48 -9 9 7 30 9 58 5 l44 -7 66 81 c37 44 67 84 67 90 0 5 -7 11 -15 15
-11 4 -14 14 -10 33 l5 28 -10 -27 c-10 -24 -14 -25 -44 -17 -18 5 -60 11 -92
13 -50 4 -59 7 -62 25 -2 12 -7 21 -11 21 -5 0 -6 -11 -4 -24 4 -21 0 -24 -40
-30 -91 -14 -240 -85 -231 -111 3 -7 1 -16 -5 -20 -6 -3 -11 -1 -11 6 0 7 -14
0 -30 -16 -27 -26 -29 -31 -15 -41 13 -10 11 -11 -11 -11 -33 0 -74 -31 -93
-71 -18 -36 -36 -43 -25 -9 8 29 32 55 69 78 31 20 27 26 -5 9 -13 -7 -21 -7
-25 0 -11 18 -26 10 -20 -11 4 -13 0 -27 -11 -40 -26 -29 -22 -78 9 -103 21
-18 24 -24 15 -41 -6 -10 -17 -37 -24 -60 -7 -22 -13 -31 -13 -20 0 11 8 39
19 63 10 23 17 42 14 42 -3 0 -14 -19 -24 -42 -43 -95 -14 -227 66 -297 19
-17 34 -33 34 -36 0 -3 -15 -5 -34 -5 -34 0 -55 -13 -38 -24 16 -10 300 -26
504 -28 115 -2 208 -6 208 -10 0 -5 -107 -9 -237 -10 -136 -1 -204 -4 -158 -7
60 -4 30 -7 -120 -11 -167 -4 -200 -7 -203 -20 -1 -8 8 -20 20 -25 16 -7 23
-18 23 -39 0 -25 -5 -31 -32 -38 -18 -5 -34 -17 -38 -28 -3 -11 -18 -21 -33
-23 -15 -2 236 -4 558 -4 322 0 574 2 560 4 -14 2 -30 14 -35 26 -8 17 -20 23
-53 25 -37 3 -42 6 -37 22 3 11 1 28 -5 40 -10 18 -8 20 24 20 38 0 71 23 81
58 5 17 -1 29 -23 51 -20 20 -31 44 -35 74 -6 42 -4 46 38 87 l44 43 -61 66
c-60 64 -92 87 -86 59 2 -11 -157 -208 -168 -208 -11 0 4 18 81 104 58 65 80
96 71 99 -8 3 -42 42 -76 87 l-62 82 -45 -7 c-36 -5 -44 -4 -37 7 6 10 4 10
-9 -1 -9 -7 -17 -10 -17 -6 0 11 149 195 158 195 12 0 72 88 72 105 0 23 -37
55 -63 55 -15 0 -36 -16 -60 -44z m73 26 c0 -5 -11 -15 -25 -22 -13 -7 -22
-17 -19 -21 3 -5 -3 -6 -12 -2 -12 4 -15 3 -10 -5 4 -7 2 -12 -4 -12 -6 0 -8
-4 -5 -10 3 -5 1 -10 -4 -10 -18 0 -12 17 14 46 14 15 25 31 25 35 0 5 9 9 20
9 11 0 20 -4 20 -8z m-87 -104 c-55 -73 -256 -318 -260 -318 -7 0 -14 -10 136
178 67 83 124 152 128 152 3 0 1 -6 -4 -12z m-405 -45 c-7 -9 -14 -9 -28 0
-18 10 -18 13 -3 29 15 17 17 17 29 0 8 -11 9 -21 2 -29z m246 39 c3 -5 -19
-33 -49 -62 -52 -52 -55 -53 -74 -36 -15 13 -20 14 -24 4 -3 -7 -6 1 -6 19 -1
32 20 53 51 53 7 -1 3 -6 -10 -14 -21 -11 -22 -14 -7 -26 14 -12 22 -8 58 28
43 43 52 48 61 34z m-337 -78 c-9 -9 -28 6 -21 18 4 6 10 6 17 -1 6 -6 8 -13
4 -17z m-9 -61 c-10 -2 -26 -2 -35 0 -10 3 -2 5 17 5 19 0 27 -2 18 -5z m-45
-70 c-7 -2 -19 -2 -25 0 -7 3 -2 5 12 5 14 0 19 -2 13 -5z m80 0 c-7 -2 -19
-2 -25 0 -7 3 -2 5 12 5 14 0 19 -2 13 -5z m532 -103 c9 -16 14 -30 12 -30 -2
0 -13 14 -25 30 -13 17 -18 30 -13 30 6 0 17 -13 26 -30z m-161 -21 c36 -17
82 -31 100 -31 25 0 33 -4 29 -14 -3 -9 -18 -13 -43 -11 -21 1 -36 5 -34 8 5
9 -86 50 -97 44 -5 -4 -9 -1 -9 6 0 16 -97 3 -127 -17 -30 -19 -52 -19 -32 1
16 16 91 42 125 44 12 1 52 -13 88 -30z m-540 -25 c21 -8 20 -40 -1 -48 -9 -4
-23 0 -31 8 -13 12 -13 18 -2 30 14 18 13 18 34 10z m81 -24 c3 -5 1 -10 -4
-10 -6 0 -11 5 -11 10 0 6 2 10 4 10 3 0 8 -4 11 -10z m-30 -30 c3 -5 2 -10
-4 -10 -5 0 -13 5 -16 10 -3 6 -2 10 4 10 5 0 13 -4 16 -10z m372 -16 c-3 -3
-12 -4 -19 -1 -8 3 -5 6 6 6 11 1 17 -2 13 -5z m-439 -32 c3 -16 -2 -22 -17
-22 -26 0 -36 17 -20 36 16 19 33 13 37 -14z m299 12 c6 -15 -32 -64 -50 -64
-5 0 -6 12 -2 27 12 49 40 69 52 37z m-277 -79 c15 -18 5 -35 -21 -35 -12 0
-19 7 -19 18 0 33 20 42 40 17z m451 -32 c13 -15 12 -15 -8 -4 -24 12 -29 21
-14 21 5 0 15 -7 22 -17z m-500 -30 c13 -16 12 -17 -3 -4 -10 7 -18 15 -18 17
0 8 8 3 21 -13z m900 -30 c10 -12 10 -15 1 -9 -18 11 -102 15 -102 5 0 -5 -11
-4 -24 1 -13 5 -27 6 -30 3 -3 -4 -6 -1 -6 5 0 8 24 12 74 12 57 0 77 -4 87
-17z m-860 -10 c13 -16 12 -17 -3 -4 -17 13 -22 21 -14 21 2 0 10 -8 17 -17z
m387 -12 c2 -7 38 -12 85 -13 77 -2 75 -2 -43 -10 -69 -5 -183 -11 -255 -14
l-130 -5 0 32 0 32 170 -6 c106 -3 171 -10 173 -16z m518 -73 c5 -8 0 -9 -14
-6 -13 4 -22 1 -22 -5 0 -8 -4 -7 -12 1 -14 14 -32 16 -23 3 3 -6 -7 -6 -27 0
-18 5 -34 9 -35 9 -1 0 0 -8 3 -17 4 -11 3 -14 -3 -7 -10 13 -58 30 -50 18 3
-5 -10 -9 -29 -9 -19 0 -34 4 -34 9 0 4 -7 6 -15 3 -8 -4 -17 -2 -20 3 -4 6
47 10 134 10 95 0 142 -4 147 -12z m-353 -65 c-34 -2 -93 -2 -130 0 -37 2 -9
3 62 3 72 0 102 -1 68 -3z m244 -39 c-7 -8 -347 -8 -354 0 -4 3 76 6 177 6
101 0 181 -3 177 -6z m-374 -28 c9 0 17 -4 17 -8 0 -4 -53 -9 -117 -10 l-118
-2 120 -6 120 -6 -135 -4 -135 -4 95 -6 c75 -5 52 -7 -110 -8 l-205 -2 0 36 0
36 225 -8 c124 -4 233 -8 243 -8z m-332 -73 c-126 -3 -189 -7 -200 -16 -14
-11 -14 -10 -2 6 12 15 33 17 200 15 l186 -3 -184 -2z m232 0 c-7 -2 -19 -2
-25 0 -7 3 -2 5 12 5 14 0 19 -2 13 -5z"/>
<path d="M481 1175 c1 -19 18 -51 18 -35 0 8 -4 22 -9 30 -5 8 -9 11 -9 5z"/>
<path d="M532 1160 c0 -14 2 -19 5 -12 2 6 2 18 0 25 -3 6 -5 1 -5 -13z"/>
<path d="M740 1140 c0 -5 5 -10 10 -10 6 0 10 5 10 10 0 6 -4 10 -10 10 -5 0
-10 -4 -10 -10z"/>
<path d="M410 1135 c0 -5 5 -17 10 -25 5 -8 10 -10 10 -5 0 6 -5 17 -10 25 -5
8 -10 11 -10 5z"/>
<path d="M300 1120 c0 -5 5 -10 10 -10 6 0 10 5 10 10 0 6 -4 10 -10 10 -5 0
-10 -4 -10 -10z"/>
<path d="M826 1113 c-6 -14 -5 -15 5 -6 7 7 10 15 7 18 -3 3 -9 -2 -12 -12z"/>
<path d="M1031 1066 c-29 -30 -52 -59 -50 -65 2 -6 28 13 58 43 29 30 52 59
50 65 -2 6 -28 -13 -58 -43z"/>
<path d="M380 1101 c0 -6 4 -13 10 -16 6 -3 7 1 4 9 -7 18 -14 21 -14 7z"/>
<path d="M265 1060 c-16 -18 -19 -18 -41 -3 -33 21 -35 13 -4 -17 l25 -25 27
27 c14 15 23 30 19 33 -5 2 -16 -4 -26 -15z"/>
<path d="M1040 997 l-34 -42 42 40 c23 21 42 40 42 42 0 12 -20 -5 -50 -40z"/>
<path d="M143 992 c-7 -5 -9 -13 -3 -22 7 -11 11 -11 24 -1 24 20 6 40 -21 23z"/>
<path d="M890 947 c-22 -30 -40 -59 -40 -64 0 -6 12 -14 28 -18 15 -3 35 -13
44 -22 13 -11 21 -12 40 -3 21 10 21 10 6 -3 -24 -19 -22 -26 10 -65 27 -32
28 -32 82 -24 55 8 58 11 45 45 -5 12 -2 17 9 17 9 0 16 6 16 13 0 21 -12 28
-26 16 -18 -15 -32 17 -15 34 16 16 14 52 -4 67 -8 7 -28 10 -45 8 -23 -3 -36
2 -57 24 -15 15 -33 28 -40 28 -7 0 -30 -24 -53 -53z m81 -33 c-11 -9 -20 -9
-33 -1 -16 10 -16 12 0 27 15 14 18 14 32 0 14 -13 14 -16 1 -26z m79 13 c-27
-15 -36 -14 -25 2 3 6 16 11 28 11 21 0 21 -1 -3 -13z m-4 -118 c10 -17 -13
-36 -27 -22 -12 12 -4 33 11 33 5 0 12 -5 16 -11z"/>
<path d="M1100 980 c0 -5 5 -10 10 -10 6 0 10 5 10 10 0 6 -4 10 -10 10 -5 0
-10 -4 -10 -10z"/>
<path d="M90 766 c0 -2 7 -7 16 -10 8 -3 12 -2 9 4 -6 10 -25 14 -25 6z"/>
<path d="M1095 741 c-68 -16 -73 -31 -9 -31 16 0 28 -8 34 -22 9 -21 9 -21 7
7 -2 25 2 30 27 35 17 3 29 9 29 15 -2 15 -13 14 -88 -4z"/>
<path d="M1160 459 c0 -5 5 -7 10 -4 6 3 10 8 10 11 0 2 -4 4 -10 4 -5 0 -10
-5 -10 -11z"/>
<path d="M105 450 c-3 -5 -1 -10 4 -10 6 0 11 5 11 10 0 6 -2 10 -4 10 -3 0
-8 -4 -11 -10z"/>
<path d="M120 400 c0 -5 5 -10 10 -10 6 0 10 5 10 10 0 6 -4 10 -10 10 -5 0
-10 -4 -10 -10z"/>
<path d="M95 360 c-3 -5 1 -10 9 -10 9 0 16 5 16 10 0 6 -4 10 -9 10 -6 0 -13
-4 -16 -10z"/>
</g>
</svg>
